<?xml version="1.0" encoding="utf-8"?>
<!-- Generator: Adobe Illustrator 27.5.0, SVG Export Plug-In . SVG Version: 6.00 Build 0)  -->
<svg version="1.1" id="Calque_1" xmlns="http://www.w3.org/2000/svg" xmlns:xlink="http://www.w3.org/1999/xlink" x="0px" y="0px"
	 viewBox="0 0 100.8 111.5" style="enable-background:new 0 0 100.8 111.5;" xml:space="preserve">
<style type="text/css">
	.st0{fill:#020304;stroke:url(#SVGID_1_);stroke-width:1.9725;stroke-miterlimit:10;}
	.st1{fill:#FFFFFF;}
	
		.st2{fill:#020203;stroke:url(#SVGID_00000169553098299653520880000010880890192063653262_);stroke-width:1.9602;stroke-miterlimit:10;}
</style>
<g>
	
		<linearGradient id="SVGID_1_" gradientUnits="userSpaceOnUse" x1="-625.7667" y1="14140.7441" x2="-581.2625" y2="14140.7441" gradientTransform="matrix(1 0 0 -1 654 14171.5967)">
		<stop  offset="7.261883e-02" style="stop-color:#D54D81"/>
		<stop  offset="0.5268" style="stop-color:#2CA7DC"/>
		<stop  offset="0.9524" style="stop-color:#559A3C"/>
	</linearGradient>
	<ellipse class="st0" cx="50.5" cy="30.9" rx="21.3" ry="24.6"/>
	<ellipse class="st1" cx="50.5" cy="30.4" rx="11.3" ry="12.1"/>
	
		<linearGradient id="SVGID_00000119804056414053002220000001165519027081019016_" gradientUnits="userSpaceOnUse" x1="-653.6547" y1="14102.1396" x2="-553.4286" y2="14102.1396" gradientTransform="matrix(1 0 0 -1 654 14171.5967)">
		<stop  offset="7.261883e-02" style="stop-color:#D54D81"/>
		<stop  offset="0.5268" style="stop-color:#2CA7DC"/>
		<stop  offset="0.9524" style="stop-color:#559A3C"/>
	</linearGradient>
	
		<path style="fill:#020203;stroke:url(#SVGID_00000119804056414053002220000001165519027081019016_);stroke-width:1.9602;stroke-miterlimit:10;" d="
		M67.4,33.7H33.5c-7.1,0-13.6,4.3-16.3,11L2.6,81.1c-4.6,11.5,3.8,24.1,16.3,24.1h2.8h49.6H82c12.4,0,20.9-12.6,16.3-24.1L83.7,44.8
		C81,38.1,74.6,33.7,67.4,33.7z"/>
	<path class="st1" d="M61.3,48.4H39.6c-3.9,0-7.4,2.3-8.8,5.9L21.2,78c-2.5,6.3,2.1,13.1,8.8,13.1h3.2h29.7h8
		c6.8,0,11.3-6.8,8.8-13.1l-9.6-23.7C68.7,50.7,65.2,48.4,61.3,48.4z"/>
</g>
</svg>
