<?xml version="1.0" encoding="utf-8"?>
<!-- Generator: Adobe Illustrator 27.5.0, SVG Export Plug-In . SVG Version: 6.00 Build 0)  -->
<svg version="1.1" id="Calque_1" xmlns="http://www.w3.org/2000/svg" xmlns:xlink="http://www.w3.org/1999/xlink" x="0px" y="0px"
	 viewBox="0 0 222.4 182.9" style="enable-background:new 0 0 222.4 182.9;" xml:space="preserve">
<style type="text/css">
	.st0{fill:#FFFFFF;stroke:#020203;stroke-width:4.4373;stroke-miterlimit:10;}
	.st1{fill:#FFFFFF;stroke:#020203;stroke-width:0.75;stroke-miterlimit:10;}
</style>
<polygon class="st0" points="13,2.9 179.7,40 194.8,159.2 2.4,161.8 "/>
<g>
	<g>
		<path class="st1" d="M188.9,120c8.3,3.6,16.6,7.2,24.8,10.8c0.1,0.1,0.3,0.2,0.5,0.3c1.3,0.8,2.6,1.7,3.5,2.8
			c4.3,5,5.4,10.6,2.8,16.6c-3.2,7.6-6.6,15.1-9.8,22.6c-1.3,2.9-3.2,5.3-6,6.9c-4.6,2.8-9.5,3.1-14.5,0.9
			c-7.4-3.2-14.8-6.5-22.2-9.7c-0.9-0.4-1.9-0.9-2.8-1.5c-5.2-3.8-7.3-8.9-6.4-15.3c0.1-0.8,0.4-1.6,0.6-2.5
			c3.6-8.3,7.2-16.6,10.8-24.8c0.3-0.5,0.6-1,0.9-1.4c3.8-5.2,8.9-7.3,15.3-6.4C187.3,119.6,188.1,119.8,188.9,120z M169.4,141.6
			c-1.6,3.7-3.2,7.4-4.8,11c-0.5,1.2-0.9,2.3-1,3.7c-0.3,4.7,2.1,8.6,6.4,10.5c7.4,3.2,14.8,6.5,22.2,9.7c1.1,0.5,2.3,0.8,3.5,0.9
			c4.7,0.4,8.6-2.1,10.5-6.4c3.2-7.4,6.5-14.8,9.7-22.2c0.5-1.1,0.8-2.3,1-3.5c0.4-4.6-2-8.6-6.4-10.5c-7.4-3.2-14.9-6.5-22.3-9.8
			c-3.3-1.5-6.6-1.3-9.7,0.5c-2,1.2-3.4,2.9-4.3,5C172.6,134.3,171,138,169.4,141.6z"/>
		<path class="st1" d="M203.2,156.6c-3.2,7.2-11.7,10.5-18.8,7.3c-7.2-3.2-10.5-11.7-7.3-18.8c3.2-7.2,11.6-10.5,18.8-7.4
			S206.4,149.4,203.2,156.6z M198.7,154.6c2.1-4.8-0.1-10.3-4.9-12.3c-4.8-2.1-10.3,0.1-12.3,4.9c-2.1,4.8,0.1,10.3,4.9,12.3
			C191.1,161.5,196.7,159.3,198.7,154.6z"/>
		<path class="st1" d="M208.3,146.5c-1.8-0.8-2.6-2.9-1.8-4.7c0.8-1.8,3-2.7,4.8-1.8c1.8,0.8,2.6,2.9,1.8,4.7
			C212.2,146.5,210.1,147.3,208.3,146.5z"/>
	</g>
</g>
</svg>
