<?xml version="1.0" encoding="utf-8"?>
<!-- Generator: Adobe Illustrator 27.5.0, SVG Export Plug-In . SVG Version: 6.00 Build 0)  -->
<svg version="1.1" id="Calque_1" xmlns="http://www.w3.org/2000/svg" xmlns:xlink="http://www.w3.org/1999/xlink" x="0px" y="0px"
	 viewBox="0 0 365.6 365.5" style="enable-background:new 0 0 365.6 365.5;" xml:space="preserve">
<style type="text/css">
	.st0{fill:#FFFFFF;stroke:#000000;stroke-width:1.5;stroke-miterlimit:10;}
</style>
<g>
	<path class="st0" d="M364.7,171.4c0,7.6,0,15.2,0,22.7c-0.5,4.3-1,8.7-1.6,13c-5.1,36.1-19.4,68.1-43.5,95.4
		c-28.1,31.9-63.2,51.8-105.1,59.3c-6.7,1.2-13.5,1.9-20.3,2.8c-7.6,0-15.2,0-22.7,0c-0.9-0.2-1.8-0.5-2.7-0.6
		c-21.2-1.6-41.6-6.5-60.8-15.6C50.6,321,15.7,276.2,3.7,213.7c-1.2-6.5-1.8-13.1-2.7-19.6c0-7.6,0-15.2,0-22.7
		c0.5-4.3,1-8.7,1.6-13c5.2-36.9,20-69.4,44.9-97c28.1-31.2,62.9-50.6,104.4-57.8c6.5-1.1,13.1-1.8,19.6-2.7c7.6,0,15.2,0,22.7,0
		c0.9,0.2,1.8,0.5,2.7,0.6c27.3,2.1,53,9.7,76.5,23.7c48.4,28.8,78,70.8,88.5,126.3C363.2,158,363.8,164.7,364.7,171.4z
		 M207.7,331.9c66.9-9.7,129.4-71.6,126.3-154.9C330.8,91.9,258.8,26.7,174,31.4C92,36,27.7,105.6,31.3,189.2
		c3.5,81.2,67.9,134.6,124.1,142.1c0-32.9,0-65.9,0-99.3c-15,0-29.8,0-44.5,0c0-16.2,0-31.9,0-47.9c15,0,29.7,0,44.9,0
		c0-9-0.3-17.6,0.1-26.2c0.4-10.3,0.6-20.6,2.3-30.7c4.7-27,20.9-43.8,46.8-49.3c13.6-2.9,27.3-2,41-1.3c5.4,0.3,10.8,1,16.2,1.5
		c0,14.2,0,28,0,42.1c-1.5,0-2.8,0-4,0c-9,0-18-0.1-27,0.1c-7.1,0.1-13,3.2-16.7,9.2c-2.4,3.9-4.5,8.3-5.2,12.7
		c-1.2,8-1.4,16.2-1.7,24.4c-0.2,5.8,0,11.5,0,17.7c18.3,0,36.2,0,54.4,0c-2.5,16.2-4.9,32-7.4,48.1c-15.8,0-31.2,0-46.8,0
		C207.7,265.6,207.7,298.6,207.7,331.9z"/>
</g>
</svg>
