<?xml version="1.0" encoding="utf-8"?>
<!-- Generator: Adobe Illustrator 27.5.0, SVG Export Plug-In . SVG Version: 6.00 Build 0)  -->
<svg version="1.1" id="Calque_1" xmlns="http://www.w3.org/2000/svg" xmlns:xlink="http://www.w3.org/1999/xlink" x="0px" y="0px"
	 viewBox="0 0 221.6 184.3" style="enable-background:new 0 0 221.6 184.3;" xml:space="preserve">
<style type="text/css">
	.st0{fill:#FFFFFF;stroke:#020203;stroke-width:5;stroke-miterlimit:10;}
	.st1{fill:#FFFFFF;stroke:#020304;stroke-width:0.75;stroke-miterlimit:10.0003;}
</style>
<g>
	<polygon class="st0" points="3.5,3.6 24.7,181.1 200,163.7 200,46.1 	"/>
	<g>
		<g>
			<path class="st1" d="M221,133.6l-0.4,2.1l-7.6,37.6c-0.2,3.8-4.7,6.8-10.1,6.7c-5.5-0.1-9.9-3.3-9.9-7.2
				c0.1-3.9,4.6-6.9,10.1-6.8c3.1,0.1,5.9,1.1,7.7,2.8l5.1-25.4l-29.9-0.7l-7,34.5c-0.2,3.8-4.7,6.8-10.1,6.7
				c-5.5-0.1-9.9-3.3-9.9-7.2c0.1-3.9,4.6-6.9,10.1-6.8c3.1,0.1,5.9,1.1,7.7,2.7l6.1-29.9l2.1-10.5l0-0.2c0.1-0.7,0.8-1.1,1.6-1.1
				l32.5,1.1C220.3,131.9,221.1,132.7,221,133.6z"/>
		</g>
	</g>
</g>
</svg>
