<?xml version="1.0" encoding="utf-8"?>
<!-- Generator: Adobe Illustrator 27.5.0, SVG Export Plug-In . SVG Version: 6.00 Build 0)  -->
<svg version="1.1" id="Calque_1" xmlns="http://www.w3.org/2000/svg" xmlns:xlink="http://www.w3.org/1999/xlink" x="0px" y="0px"
	 viewBox="0 0 232.7 212" style="enable-background:new 0 0 232.7 212;" xml:space="preserve">
<style type="text/css">
	.st0{fill:#FFFFFF;stroke:#020203;stroke-width:5;stroke-miterlimit:10;}
	.st1{fill:#FFFFFF;stroke:#020304;stroke-width:0.75;stroke-miterlimit:10;}
	.st2{fill:#020304;stroke:#FFFFFF;stroke-width:0.75;stroke-miterlimit:10;}
	.st3{fill:#FFFFFF;stroke:#020203;stroke-width:0.75;stroke-miterlimit:10;}
</style>
<g>
	<polygon class="st0" points="27.2,58.3 202.3,3.2 229.7,161.2 27.2,198.6 	"/>
	<g>
		<path class="st1" d="M79.5,194.6l-64.6-23.8c-5.6-2-8.4-8.2-6.4-13.8l0,0c2-5.6,8.2-8.4,13.8-6.4l64.6,23.8
			c5.6,2,8.4,8.2,6.4,13.8l0,0C91.2,193.8,85,196.6,79.5,194.6z"/>
		<g>
			<path class="st2" d="M83.5,200.3L8,172.5c-4.6-1.7-6.9-6.7-5.2-11.3l0,0c1.7-4.6,6.7-6.9,11.3-5.2l75.5,27.8
				c4.6,1.7,6.9,6.7,5.2,11.3l0,0C93.1,199.6,88.1,202,83.5,200.3z"/>
			<g>
				<path class="st3" d="M89.5,189.6c1.2-0.2,1.8-1.6,1.5-2.6c-0.1-0.5-0.6-1.1-1-1.3c-0.5-0.3-1.1-0.3-1.7-0.2c0,0,0,0-0.1,0
					c0.2,0,0.4-0.1,0.6-0.1c-1.2,0.2-2.4,0.1-3.6,0c0.2,0,0.4,0.1,0.6,0.1c-0.8-0.1-1.6-0.3-2.3-0.5c-0.4-0.1-0.8-0.3-1.2-0.4
					c-0.2-0.1-0.9-0.4-0.2-0.1c-0.2-0.1-0.4-0.2-0.6-0.3c-0.8-0.4-1.6-0.9-2.3-1.4c-0.1-0.1-0.3-0.2-0.4-0.3c-0.4-0.3,0.3,0.2,0.1,0
					c-0.2-0.2-0.4-0.3-0.6-0.5c-0.4-0.3-0.8-0.6-1.1-0.9c-1.6-1.3-3.4-2.3-5.4-2.9c-1.5-0.5-3-0.7-4.5-0.8c-1.1-0.1-2.1,0-3.2-0.2
					c0.2,0,0.4,0.1,0.6,0.1c-0.9-0.1-1.8-0.4-2.8-0.6c-1.2-0.2-2.5-0.4-3.7-0.8c-0.7-0.2-1.3-0.4-2-0.6c-0.2-0.1-0.8-0.3-0.1,0
					c-0.1-0.1-0.3-0.1-0.4-0.2c-0.3-0.2-0.7-0.3-1-0.5c-0.8-0.4-1.5-0.8-2.1-1.3c-0.1-0.1-0.2-0.2-0.3-0.2c-0.3-0.2,0.4,0.3,0,0
					c-0.2-0.1-0.3-0.2-0.5-0.4c-0.3-0.2-0.6-0.5-0.9-0.8c-2.2-2-4.9-3.3-7.7-4.1c-2.2-0.7-4.5-1.1-6.8-1.4c-1-0.1-2.1-0.1-3.1-0.2
					c0.2,0,0.4,0.1,0.6,0.1c-1.3-0.2-2.6-0.5-3.9-0.8c-0.7-0.2-1.4-0.4-2.1-0.7c-0.2-0.1-0.4-0.2-0.6-0.2c-0.1,0-0.2-0.1-0.3-0.1
					c-0.3-0.1,0.2,0.1,0.2,0.1c-0.4-0.1-0.7-0.3-1-0.5c-1.6-0.8-3-2-4.5-2.9c-1.7-1-3.5-1.9-5.4-2.4c-2-0.5-3.9-0.6-5.9-0.3
					c-0.6,0.1-1,0.6-1.3,1c-0.3,0.5-0.3,1.1-0.2,1.7c0.1,0.5,0.6,1.1,1,1.3c0.5,0.3,1.1,0.3,1.7,0.2c0.1,0,0.2,0,0.2,0
					c-0.2,0-0.4,0.1-0.6,0.1c1-0.1,2-0.1,2.9,0c-0.2,0-0.4-0.1-0.6-0.1c1.3,0.2,2.5,0.5,3.6,1c0.4,0.2-0.3-0.2-0.1,0
					c0.1,0,0.1,0.1,0.2,0.1c0.2,0.1,0.3,0.1,0.4,0.2c0.3,0.2,0.6,0.3,0.9,0.5c0.6,0.3,1.2,0.7,1.8,1.1c0.9,0.6,1.8,1.3,2.8,1.8
					c1,0.6,2,1,3.1,1.4c1.7,0.6,3.4,1.1,5.1,1.4c1,0.2,2.1,0.4,3.1,0.4c0.9,0,1.8,0.1,2.7,0.2c-0.2,0-0.4-0.1-0.6-0.1
					c2.4,0.3,4.8,0.9,7,1.8c0.1,0,0.2,0.1,0.2,0.1c0.4,0.2-0.4-0.2-0.2-0.1c0.1,0.1,0.3,0.1,0.4,0.2c0.3,0.1,0.5,0.3,0.8,0.4
					c0.5,0.3,1.1,0.6,1.6,0.9c0.3,0.2,0.5,0.4,0.8,0.6c0.1,0,0.1,0.1,0.2,0.1c-0.5-0.4-0.3-0.2-0.2-0.2c0.1,0.1,0.2,0.2,0.3,0.3
					c0.7,0.6,1.4,1.2,2.1,1.8c2.3,1.7,5,2.9,7.8,3.6c1,0.3,2.1,0.4,3.1,0.6c0.8,0.1,1.5,0.3,2.3,0.5c1.9,0.4,3.8,0.2,5.7,0.5
					c-0.2,0-0.4-0.1-0.6-0.1c0.9,0.1,1.8,0.3,2.6,0.6c0.2,0.1,0.4,0.1,0.6,0.2c0.5,0.2-0.3-0.2,0,0c0.1,0,0.2,0.1,0.3,0.2
					c0.5,0.2,1,0.5,1.4,0.8c0.2,0.1,0.5,0.3,0.7,0.4c0.1,0.1,0.2,0.2,0.3,0.2c0.1,0.1,0.5,0.4,0,0c0.4,0.4,0.8,0.7,1.2,1.1
					c0.9,0.8,1.8,1.4,2.8,2c1.6,0.9,3.4,1.7,5.3,2C85.4,189.8,87.5,189.9,89.5,189.6L89.5,189.6z"/>
			</g>
		</g>
		<path class="st1" d="M72,210.8L7.6,187.1c-5.6-2.1-8.5-8.3-6.4-13.9l0,0c2.1-5.6,8.3-8.5,13.9-6.4l64.4,23.7
			c5.6,2.1,8.5,8.3,6.4,13.9l0,0C83.9,210,77.6,212.9,72,210.8z"/>
	</g>
</g>
</svg>
