<?xml version="1.0" encoding="utf-8"?>
<!-- Generator: Adobe Illustrator 27.5.0, SVG Export Plug-In . SVG Version: 6.00 Build 0)  -->
<svg version="1.1" id="Calque_1" xmlns="http://www.w3.org/2000/svg" xmlns:xlink="http://www.w3.org/1999/xlink" x="0px" y="0px"
	 viewBox="0 0 307.7 335.9" style="enable-background:new 0 0 307.7 335.9;" xml:space="preserve">
<style type="text/css">
	.st0{fill:#FFFFFF;stroke:#000000;stroke-width:1.2;stroke-miterlimit:10;}
</style>
<path class="st0" d="M128.5,70.6c-1.3-0.7-1.8-1.2-2.1-1.1c-7.2,1.9-7.9-4.3-10.2-8.3c-1.1-1.9-0.2-5.7-3.5-5.4
	c-2.4,0.3-4.8,2.3-6.7,4c-1.9,1.7-3.2,4.2-5.1,6c-2.7,2.6-6.5,2.4-8.5-0.5c-0.8-1.1-1-3.1-0.6-4.5c0.8-3,2.2-5.8,3.1-8.8
	c1.7-5.2,2.6-10.3,1.1-15.8C93,25,95.9,15.6,105.7,8.8c8.7-6,17.9-10,28.6-7.3c3,0.7,6.2,2.7,8.4,5c3.7,3.9,8,7.8,7.9,14
	c0,0.6,0.6,1.3,1,1.8c2,2.4,4.1,4.7,6,7.1c2,2.6,4.2,3.3,7.5,2.5c10.1-2.4,19.8-1.4,28.2,5.5c5.6,4.6,12.7,6,19,9
	c4.6,2.2,9.2,4.5,13.5,7.2c3.8,2.3,7.2,5.1,10.7,7.9c12.9,10.2,24.2,21.7,31.5,36.7c1,2,3.2,3.3,4.8,5c1.7,1.9,3.3,3.9,5,5.8
	c1.8,2,3.5,4.2,5.6,5.7c2.6,1.9,5.1,3.5,5.4,7.1c0.1,0.7,1.4,1.6,2.3,2c1.6,0.7,3.5,0.9,5.1,1.7c4.2,2,5.4,5.1,3.9,9.5
	c-2,5.6-4.1,11.2-6.1,16.8c-2.7,7.3-4.9,14.9-8.1,22c-3.5,7.7-9.6,13.1-17.8,15.6c-2.8,0.8-4.1,1.9-4.3,5
	c-0.6,8.6-1.7,17.2-2.4,25.7c-0.3,3.2,0.5,5.8,3.5,8c3.9,2.8,3.9,6,1.3,10.2c-0.7,1.1-0.9,2.5-1.4,4c5.7-0.8,8-3.3,8-8.2
	c0.1-7.9,5.4-15.1,13.4-16.5c-0.8,0.8-1.5,1.7-2.5,2.3c-5,2.9-7.9,7.2-8.7,12.9c-0.1,1.1,0,2.2,0,3.3c0.4,0.1,0.8,0.1,1.2,0.2
	c0.4-1.8,0.8-3.7,1.2-5.5c1.6-7.4,8.9-12.2,17.3-11.2c6.8,0.8,12.5,7.7,12.3,14.7c-0.4,10.6-11.2,17.6-20.8,13.3c-2.2-1-3.9-1-6,0.3
	c-5.4,3.3-11,6.3-16.4,9.7c-2.5,1.6-4.6,3.7-6.9,5.6c-1.3,1-2.7,1.8-4.1,2.6c-4.8,2.8-9.6,5.6-14.3,8.4
	c-11.5,6.8-22.9,13.5-34.4,20.4c-5.8,3.4-11.4,7-17.2,10.5c-2.3,1.4-4.6,2.7-6.9,3.8c-1.1,0.5-2.3,0.8-3.4,1
	c-1.1,0.2-8.2-5.4-8.5-6.6c-0.1-0.2,0-0.5-0.1-0.7c-0.9-1.8-12.3-6-14.2-4.9c-0.8,0.5-1.7,2.2-1.5,3c1.3,3.9,2.8,7.9,4.7,11.6
	c2.3,4.5,4.8,8.9,4,14.3c-0.5,3.5-1.4,6.7-5.1,8c-3.8,1.3-7.2-0.1-9.8-2.9c-4.1-4.4-6.6-9.4-5.4-15.7c0.1-0.5,0.4-1.2,0.2-1.4
	c-5.1-5.6-2.2-13.2-5.2-19.5c-6.1-12.9-12.4-25.9-16.3-39.6c-2.5-8.8-6-17.1-9.1-25.5c-3.1-8.7-7-17.1-10.5-25.6
	c-8.9-21.6-17.6-43.3-26.6-64.9c-1.3-3.1-3.6-5.8-6-8.2c-2.4-2.4-5.6-4.1-8.3-6.3c-6.3-4.9-13.3-4.3-20.3-2.5
	c-4.6,1.2-9,3.5-13.6,4.8c-6,1.7-12.2,3-18.3,4.5c-3.3,0.8-5.3-0.8-5.8-4.6c-0.4-3.2,0.7-4.3,4.2-4.7c4.9-0.6,9.7-1.4,14.5-2.2
	c8.9-1.5,17.7-3.4,26.5-4.7c2.7-0.4,5.7,0.5,8.4,1.2c2.7,0.7,5.1,2.1,7.8,2.8c6.7,1.5,12.6,0.2,17.2-5.3c2.6-3.1,6.3-5.3,6.1-10.5
	c-0.1-2.3,2.2-5.1,4.1-6.9c6.5-6.1,12.7-12.6,21.3-15.9c4-1.5,7.9-3.5,11.7-5.5C124.6,74.3,126.2,72.5,128.5,70.6z M111.1,99.8
	c1.7,0,2.5,0.1,3.2,0c3.4-0.8,6.7-2.2,10.1-2.3c2.2-0.1,4.6,1.3,6.6,2.7c0.8,0.5,1.1,3.4,0.6,3.8c-1.5,1.2-3.6,2-5.5,2.4
	c-4.6,0.9-9.3,1.2-13.8,2.4c-1.8,0.4-3.2,2.4-4.8,3.7c-1.2,1-2.3,2.3-3.6,2.8c-2.7,0.9-5.5,1.5-8.4,1.6c-2.8,0.1-5.9,0.2-8.3-1
	c-2.9-1.4-4.3-0.6-5.3,1.8c-0.8,1.7-1.3,3.6-1.8,5.4c-1.8,7.3-0.2,14.2,2.6,21c8.9,22,17.7,44.1,26.5,66.1c4.4,11,8.8,22.1,13.3,33
	c0.7,1.7,2,4.2,3.1,4.3c3.2,0.3,4.7,2.1,5.8,4.4c1.6,3.5,2.9,7.1,4.2,10.7c0.4,1.1,1.3,2.3,1.1,3.3c-0.9,5.9,2.9,9.7,6.8,12.3
	c4.4,2.8,8.5,6.2,13.8,7.8c6.3,1.9,12.2,5,18.3,7.4c1.7,0.6,4.1,1.1,5.4,0.4c6.3-3.4,12.4-7.2,18.6-10.9c1.7-1,2-2.1,1-4.1
	c-0.8-1.7-1.5-4.6-0.6-5.8c2.2-3,5.1-5.7,8.1-7.9c2.2-1.6,3.7-3.3,3.9-6c0.2-2.6,0.3-5.3,0.5-7.9c0.2-2.7-0.7-3.8-3.6-3.1
	c-2.3,0.5-3.9,0-4-2.9c-0.2-4.1-2.6-7.1-5.8-9.5c-2.7-2.1-5.3-4.4-7.8-6.9c-6.2-6.3-11.6-13.4-19.1-18.4c-3.5-2.3-6.4-5.8-9.2-9
	c-6-7-11.9-14.1-17.5-21.5c-4.5-6-7.1-13.1-3.9-20.2c3-6.5,7.9-11.7,15.8-13c1.5-0.2,3.4-1.1,4.2-2.3c2.6-3.9,6.4-5.8,10.7-6.6
	c8.7-1.7,17.4-3.2,26.1-4.9c1.1-0.2,2-0.9,3-1.4c-0.6-0.8-1.1-1.8-1.8-2.5c-2.1-2.4-4.4-4.7-6.4-7.2c-10.5-13-20.8-26-31.3-38.9
	c-0.6-0.8-2.5-1.4-3.3-1c-2.5,1-5.3,2.1-7.2,4c-3.4,3.6-7.7,4.6-12.1,5.7c-8.6,2.1-17.1,4.5-25.7,6.8
	C113.2,98.5,112.6,99,111.1,99.8z M235.9,196.1c2.8,5,5.5,9.9,8.3,14.9c0.2-0.1,0.5-0.1,0.7-0.2c-0.3-5.1-0.6-10.2-0.9-15.4
	C240.7,195.6,238.1,195.9,235.9,196.1z M300.5,228.7c-0.4-0.1-0.8-0.2-1.2-0.4c-1.1,1.5-2.2,3.1-3.3,4.6c1.9,0.7,3.9,1.4,5.8,2.1
	c0.2-0.3,0.5-0.6,0.7-0.9C301.9,232.4,301.2,230.6,300.5,228.7z M301.6,237.2c-0.2-0.5-0.4-0.9-0.6-1.4c-1.9,0.4-3.8,0.8-5.8,1.1
	c0.4,1.7,0.8,3.4,1.2,5.2c0.4,0,0.8,0.1,1.2,0.1C299,240.5,300.3,238.9,301.6,237.2z M292.6,223.7c-0.2,3-1.9,6,2.2,6.7
	c1.4-1.1,2.5-2.1,4.4-3.5C296.6,225.6,294.8,224.8,292.6,223.7z M284.3,227c0,0.5,0,0.9-0.1,1.4c1.5,0.4,3.6,1.6,4.5,1
	c1.2-0.7,1.5-2.9,2.1-4.4c-0.4-0.3-0.8-0.5-1.2-0.8C287.9,225,286.1,226,284.3,227z M75.7,125.8c-0.3-0.3-0.7-0.6-1-0.9
	c-1.7,0.4-3.4,0.8-5.1,1.2c-0.1,0.4-0.2,0.9-0.3,1.3c1.5,0.8,3,1.7,4.6,2.5C74.5,128.5,75.1,127.2,75.7,125.8z M289,242.3
	c0.2,0.4,0.4,0.8,0.6,1.2c1.8-0.1,3.6-0.3,6-0.5c-1.1-1.8-1.7-2.8-2.4-3.9C291.5,240.3,290.2,241.3,289,242.3z M225.4,224.4
	c-0.2,0.6-0.4,1.2-0.6,1.8c1.1,0.6,2.3,1.3,3.4,1.9c0.2-1.1,0.9-2.6,0.4-3.1C227.9,224.5,226.5,224.6,225.4,224.4z M286.4,231.4
	c-1.5-1.3-2.4-2.1-3.8-3.3c-0.5,1.9-0.8,3.1-1.2,5C283.3,232.5,284.5,232.1,286.4,231.4z"/>
</svg>
