<?xml version="1.0" encoding="utf-8"?>
<!-- Generator: Adobe Illustrator 27.5.0, SVG Export Plug-In . SVG Version: 6.00 Build 0)  -->
<svg version="1.1" id="Calque_1" xmlns="http://www.w3.org/2000/svg" xmlns:xlink="http://www.w3.org/1999/xlink" x="0px" y="0px"
	 viewBox="0 0 443.2 288.4" style="enable-background:new 0 0 443.2 288.4;" xml:space="preserve">
<style type="text/css">
	.st0{fill:#FFFFFF;stroke:#010202;stroke-width:1.5;stroke-miterlimit:10;}
	.st1{fill:#010202;stroke:#FFFFFF;stroke-width:1.5;stroke-miterlimit:10;}
	.st2{fill:#FFFFFF;stroke:#000000;stroke-miterlimit:10;}
</style>
<path d="M47.9,51c17.4-2.8,36.5,4.2,55.3,18.2s49.4,18.1,54.2,18.1c4.8,0.1,46.9,2,71.4,24.6s50.5,21.9,63.3,25.5
	c12.8,3.6,35.4-4.3,62.4,19.6s58.1,18.8,58.1,18.8"/>
<path class="st0" d="M368.5,208.7L67.4,97.7c-25.9-9.5-39.2-38.3-29.6-64.2l0,0C47.3,7.6,76.1-5.7,102,3.9l301.1,111
	c25.9,9.5,39.2,38.3,29.6,64.2l0,0C423.1,205,394.4,218.2,368.5,208.7z"/>
<path class="st1" d="M387.3,235.4L35.7,105.6C14.4,97.8,3.6,74.2,11.4,52.9l0,0c7.8-21.3,31.4-32.1,52.7-24.3l351.6,129.7
	c21.3,7.8,32.1,31.4,24.3,52.7l0,0C432.2,232.3,408.6,243.2,387.3,235.4z"/>
<path class="st0" d="M333.9,284.4L33.6,173.8C7.4,164.1-6,135.1,3.7,108.9l0,0C13.4,82.7,42.4,69.3,68.6,79l300.2,110.6
	c26.2,9.7,39.6,38.7,29.9,64.9l0,0C389.1,280.7,360,294.1,333.9,284.4z"/>
<g>
	<path class="st2" d="M415.3,185.6c5.6-0.9,8.2-7.6,7-12.2c-0.6-2.5-2.6-4.9-4.7-6.1c-2.5-1.4-5-1.5-7.8-1c-0.1,0.1-0.2,0.1-0.3,0.1
		c0.9-0.2,1.8-0.3,2.7-0.4c-5.5,0.8-11.3,0.5-16.9-0.2c0.9,0.2,1.8,0.3,2.7,0.4c-3.7-0.5-7.3-1.2-10.9-2.2c-1.9-0.6-3.8-1.2-5.7-1.9
		c-0.8-0.3-4.2-1.7-1-0.3c-1-0.5-2-0.9-3-1.4c-3.8-1.8-7.5-4-10.9-6.4c-0.6-0.4-1.2-0.9-1.8-1.3c-1.7-1.3,1.4,1.1,0.3,0.2
		c-1-0.8-1.9-1.5-2.8-2.3c-1.7-1.5-3.5-3-5.3-4.4c-7.6-5.9-15.8-10.7-25.1-13.6c-6.8-2.2-14-3.1-21.1-3.5c-5-0.3-10-0.2-14.9-0.8
		c0.9,0.2,1.8,0.3,2.7,0.4c-4.3-0.6-8.6-1.9-12.9-2.6c-5.8-1-11.7-2-17.4-3.6c-3.1-0.8-6.2-1.8-9.2-3c-0.8-0.3-3.6-1.6-0.6-0.2
		c-0.6-0.3-1.3-0.6-2-0.9c-1.5-0.7-3.1-1.5-4.6-2.3c-3.5-1.8-6.8-3.9-9.9-6.2c-0.4-0.3-0.9-0.7-1.3-1c-1.2-0.8,1.9,1.6,0.2,0.2
		c-0.7-0.6-1.4-1.1-2.1-1.7c-1.4-1.1-2.7-2.4-4.1-3.6c-10.4-9.1-22.9-15.2-36-19.3c-10.3-3.2-21-5.2-31.7-6.3
		c-4.8-0.5-9.7-0.5-14.5-1.1c0.9,0.2,1.8,0.3,2.7,0.4c-6.2-0.9-12.3-2.2-18.3-3.8c-3.3-0.9-6.7-2-10-3.2c-0.9-0.3-1.8-0.7-2.7-1
		c-0.4-0.2-0.8-0.3-1.2-0.5c-1.5-0.6,0.9,0.4,1,0.4c-1.7-0.6-3.2-1.4-4.8-2.2c-7.5-3.7-13.8-9.1-20.9-13.4
		c-7.8-4.8-16.4-8.7-25.3-11c-9.1-2.3-18.2-2.7-27.5-1.3c-2.6,0.4-4.8,2.6-6.1,4.7c-1.5,2.3-1.6,5.2-1,7.8c0.6,2.5,2.6,4.9,4.7,6.1
		c2.5,1.5,5,1.4,7.8,1c0.4-0.1,0.7-0.2,1.1-0.2c-0.9,0.2-1.8,0.3-2.7,0.4c4.6-0.5,9.1-0.5,13.7,0.1c-0.9-0.2-1.8-0.3-2.7-0.4
		c5.9,0.8,11.5,2.5,17,4.7c1.7,0.7-1.6-0.7-0.4-0.2c0.3,0.1,0.6,0.3,0.9,0.4c0.7,0.3,1.3,0.6,2,0.9c1.4,0.7,2.9,1.4,4.3,2.2
		c2.9,1.6,5.8,3.3,8.6,5.2c4.4,2.8,8.4,6.1,12.9,8.6c4.6,2.6,9.5,4.7,14.5,6.6c7.7,2.9,15.7,5,23.8,6.5c4.8,0.9,9.7,1.7,14.6,1.8
		c4.3,0.1,8.6,0.5,12.8,1.1c-0.9-0.2-1.8-0.3-2.7-0.4c11.2,1.5,22.3,4.1,32.8,8.3c0.3,0.2,0.7,0.3,1.1,0.5c1.8,0.7-2-0.8-0.8-0.3
		c0.6,0.3,1.2,0.5,1.8,0.8c1.3,0.5,2.5,1.2,3.8,1.8c2.5,1.3,5,2.7,7.4,4.3c1.2,0.8,2.5,1.7,3.7,2.6c0.3,0.2,0.5,0.4,0.8,0.6
		c-2.4-1.8-1.4-1.1-0.9-0.7c0.6,0.4,1.1,0.9,1.6,1.3c3.3,2.8,6.4,5.7,9.9,8.3c10.6,8.1,23.2,13.7,36.2,16.8c4.8,1.2,9.6,2,14.4,2.8
		c3.7,0.6,7.2,1.5,10.8,2.2c8.7,1.8,17.8,0.9,26.7,2.1c-0.9-0.2-1.8-0.3-2.7-0.4c4.1,0.6,8.2,1.5,12.2,2.8c1,0.3,1.9,0.6,2.9,1
		c2.5,1-1.6-0.8,0,0c0.5,0.2,1,0.5,1.5,0.7c2.3,1.1,4.5,2.3,6.6,3.6c1,0.6,2.1,1.3,3.1,2c0.6,0.3,1.1,0.7,1.6,1.1
		c0.5,0.3,2.2,1.8,0.1,0c1.9,1.7,3.9,3.3,5.8,4.9c4.1,3.5,8.5,6.7,13.2,9.4c7.6,4.4,16,7.7,24.6,9.5
		C396.1,186.4,405.8,187.1,415.3,185.6L415.3,185.6z"/>
</g>
</svg>
