<?xml version="1.0" encoding="utf-8"?>
<!-- Generator: Adobe Illustrator 27.5.0, SVG Export Plug-In . SVG Version: 6.00 Build 0)  -->
<svg version="1.1" id="Calque_1" xmlns="http://www.w3.org/2000/svg" xmlns:xlink="http://www.w3.org/1999/xlink" x="0px" y="0px"
	 viewBox="0 0 135.9 135.9" style="enable-background:new 0 0 135.9 135.9;" xml:space="preserve">
<style type="text/css">
	.st0{fill:#FFFFFF;stroke:#000000;stroke-miterlimit:10;}
</style>
<g>
	<path class="st0" d="M35,0.5c21.9,0,43.9,0,65.8,0c0.4,0.1,0.8,0.2,1.3,0.2c3.7,0.4,7.3,1.2,10.6,2.8c14.5,6.8,22.3,18.3,22.5,34.3
		c0.3,20,0.1,40,0.1,60c0,7.8-2.1,14.9-6.6,21.3c-7.6,10.7-18.2,16.1-31.3,16.1c-19.7,0.1-39.3,0-59,0c-2.5,0-5.1-0.1-7.6-0.7
		c-15.3-3.4-25-12.6-29.2-27.7c-0.5-2-0.7-4-1.1-6.1c0-21.9,0-43.9,0-65.8c0.2-1.4,0.4-2.8,0.7-4.1C4.7,15.6,13.9,5.8,29,1.7
		C31,1.1,33,0.9,35,0.5z M12.5,67.8c0,9.8,0,19.6,0,29.3c0,3.1,0.3,6.1,1.4,9.1c3.8,10.7,13,17.1,24.6,17.2c19.6,0,39.3,0.1,58.9,0
		c2.9,0,6-0.4,8.8-1.4c10.8-3.6,17.2-13,17.2-24.6c0-19.6,0.1-39.2-0.1-58.8c0-2.9-0.4-6-1.3-8.8c-3.6-10.7-12.9-17.2-24.5-17.2
		c-19.7,0-39.5,0-59.2,0c-8.8,0-15.9,3.5-21.1,10.6c-3.4,4.6-4.7,9.8-4.7,15.4C12.5,48.3,12.5,58.1,12.5,67.8z"/>
	<path class="st0" d="M102.7,68c-0.1,19.1-15.8,34.8-34.8,34.7c-19.2-0.1-34.8-15.8-34.6-34.8C33.4,48.7,48.9,33.2,68,33.2
		C87.1,33.2,102.7,48.9,102.7,68z M90.7,67.9c0-12.6-10.2-22.8-22.8-22.7c-12.6,0-22.8,10.2-22.7,22.8c0,12.6,10.2,22.8,22.8,22.7
		C80.5,90.7,90.7,80.4,90.7,67.9z"/>
	<path class="st0" d="M104.1,40.6c-4.8,0-8.7-4-8.7-8.7c0-4.8,4-8.8,8.8-8.7c4.8,0,8.7,3.9,8.7,8.7
		C112.9,36.6,108.9,40.6,104.1,40.6z"/>
</g>
</svg>
