<?xml version="1.0" encoding="utf-8"?>
<!-- Generator: Adobe Illustrator 27.5.0, SVG Export Plug-In . SVG Version: 6.00 Build 0)  -->
<svg version="1.1" id="Calque_1" xmlns="http://www.w3.org/2000/svg" xmlns:xlink="http://www.w3.org/1999/xlink" x="0px" y="0px"
	 viewBox="0 0 530 171" style="enable-background:new 0 0 530 171;" xml:space="preserve">
<style type="text/css">
	
		.st0{fill:url(#SVGID_1_);stroke:url(#SVGID_00000075861519140711872370000013509319427177089166_);stroke-width:2.601;stroke-miterlimit:10;}
	
		.st1{fill:url(#SVGID_00000125560954749964549000000009375482222160089742_);stroke:url(#SVGID_00000015336502543757362930000007097628335680902025_);stroke-width:2.601;stroke-miterlimit:10;}
	
		.st2{fill:url(#SVGID_00000101075816427413464350000007489046757718414502_);stroke:url(#SVGID_00000132049311604946001520000002509986805393302951_);stroke-width:2.601;stroke-miterlimit:10;}
	
		.st3{fill:url(#SVGID_00000086678422359319385320000006858567839889846936_);stroke:url(#SVGID_00000111902212574691542080000012880161175241577616_);stroke-width:2.601;stroke-miterlimit:10;}
	
		.st4{fill:url(#SVGID_00000124156597609270393940000011209799901757085575_);stroke:url(#SVGID_00000005948397752296829040000002367073111373692556_);stroke-width:2.601;stroke-miterlimit:10;}
	
		.st5{fill:url(#SVGID_00000038371385865778101170000016870256734550023088_);stroke:url(#SVGID_00000098223472924040703970000002262959426322097318_);stroke-width:2.601;stroke-miterlimit:10;}
	
		.st6{fill:url(#SVGID_00000175301760511588525740000007617959070872359079_);stroke:url(#SVGID_00000023241431809041856120000002933541985597116340_);stroke-width:2.601;stroke-miterlimit:10;}
	
		.st7{fill:url(#SVGID_00000071544125636521675250000012259589937636844185_);stroke:url(#SVGID_00000091696854006101041360000015403289974437026191_);stroke-width:2.601;stroke-miterlimit:10;}
	
		.st8{fill:url(#SVGID_00000083059180818205301520000000071335167524274063_);stroke:url(#SVGID_00000119838718596183612170000010287633886600652471_);stroke-width:2.601;stroke-miterlimit:10;}
	
		.st9{fill:url(#SVGID_00000159449746322514571440000008734073652653044888_);stroke:url(#SVGID_00000180365195833379307480000001753433769674613394_);stroke-width:2.2792;stroke-miterlimit:10;}
	
		.st10{fill:url(#SVGID_00000166669132362064562860000002119398435475124377_);stroke:url(#SVGID_00000178207082139484433360000002028388246176963506_);stroke-width:2.2792;stroke-miterlimit:10;}
	
		.st11{fill:url(#SVGID_00000078747082819527741490000007412735348313181851_);stroke:url(#SVGID_00000043459049956121385240000013552394731613097139_);stroke-width:2.2792;stroke-miterlimit:10;}
	
		.st12{fill:url(#SVGID_00000128486172046700475690000006258490648433792440_);stroke:url(#SVGID_00000004510445371640310690000000313862503770942648_);stroke-width:2.2792;stroke-miterlimit:10;}
	
		.st13{fill:url(#SVGID_00000151545768529012769000000006139742622527809950_);stroke:url(#SVGID_00000146469502000287736810000012237973025695981223_);stroke-width:2.2792;stroke-miterlimit:10;}
	
		.st14{fill:url(#SVGID_00000132773562538665368880000008289579956828454789_);stroke:url(#SVGID_00000086667534607693702560000010859366820295937429_);stroke-width:2.2792;stroke-miterlimit:10;}
	
		.st15{fill:url(#SVGID_00000124132262155111539460000018229582238018467254_);stroke:url(#SVGID_00000034071970430875421130000015572849599245175983_);stroke-width:2.2792;stroke-miterlimit:10;}
	
		.st16{fill:url(#SVGID_00000123430121220261459950000006665849622361126839_);stroke:url(#SVGID_00000003785485857335927740000007968593537208799925_);stroke-width:2.2792;stroke-miterlimit:10;}
</style>
<linearGradient id="SVGID_1_" gradientUnits="userSpaceOnUse" x1="1.1488" y1="40.2837" x2="48.3559" y2="40.2837">
	<stop  offset="0.1044" style="stop-color:#D36C9D"/>
	<stop  offset="0.2506" style="stop-color:#A879AF"/>
	<stop  offset="0.3539" style="stop-color:#867DBA"/>
	<stop  offset="0.6278" style="stop-color:#6EAADC"/>
	<stop  offset="0.6642" style="stop-color:#71ACD5"/>
	<stop  offset="0.735" style="stop-color:#77B0BF"/>
	<stop  offset="0.8322" style="stop-color:#81B596"/>
	<stop  offset="0.9092" style="stop-color:#8ABA6A"/>
</linearGradient>
<linearGradient id="SVGID_00000083082145069095797130000012752633122252290441_" gradientUnits="userSpaceOnUse" x1="-0.1517" y1="40.2837" x2="49.6564" y2="40.2837">
	<stop  offset="0" style="stop-color:#FFFFFF"/>
	<stop  offset="1" style="stop-color:#000000"/>
</linearGradient>
<path style="fill:url(#SVGID_1_);stroke:url(#SVGID_00000083082145069095797130000012752633122252290441_);stroke-width:2.601;stroke-miterlimit:10;" d="
	M1.4,54.3c1.6,0.5,3.3,0.9,5.1,1.2c1.5,0.4,3.2,0.7,5.1,0.9s3.8,0.3,5.7,0.3c3.4,0,5.1-1.3,5.1-3.8c0-1-0.5-1.9-1.6-2.9
	c-1-1-2.4-2.1-3.9-3.3c-1.6-1.2-3.3-2.6-5.1-4.1c-1.8-1.5-3.5-3.2-5.1-5.1c-1.6-1.9-2.9-4.1-3.9-6.5c-1-2.4-1.6-5.2-1.6-8.3
	c0-3.5,0.6-6.6,1.9-9.2c1.3-2.7,3-4.9,5.2-6.7s4.8-3.1,7.8-4.1c3-0.9,6.2-1.4,9.6-1.4c1.8,0,3.6,0.1,5.3,0.3
	c1.8,0.2,3.4,0.4,4.8,0.5c1.6,0.2,3.2,0.4,4.8,0.7v20.8c-0.6-0.1-1.3-0.1-2-0.2c-0.6-0.1-1.3-0.1-2-0.2c-0.7-0.1-1.5-0.1-2.3-0.1
	c-0.4,0-1,0-1.7,0.1c-0.7,0-1.3,0.1-1.9,0.3c-0.6,0.1-1.1,0.4-1.6,0.8c-0.4,0.4-0.7,0.9-0.7,1.6c0,0.6,0.5,1.3,1.5,2.2
	c1,0.9,2.2,1.9,3.7,3.1c1.4,1.2,3,2.6,4.8,4.1c1.7,1.6,3.3,3.3,4.8,5.3c1.4,2,2.7,4.3,3.7,6.8c1,2.5,1.5,5.3,1.5,8.4
	c0,3.3-0.5,6.3-1.6,9.2c-1,2.9-2.6,5.3-4.8,7.4c-2.2,2.1-5,3.8-8.4,5c-3.4,1.2-7.4,1.8-12.1,1.8c-2.8,0-5.4-0.1-7.8-0.4
	c-2.4-0.3-4.5-0.6-6.4-0.9c-2.1-0.4-4.1-0.8-5.9-1.3V54.3z"/>
<linearGradient id="SVGID_00000098902570577689940720000006704576972798376101_" gradientUnits="userSpaceOnUse" x1="44.4682" y1="40.228" x2="96.2289" y2="40.228">
	<stop  offset="0.1044" style="stop-color:#D36C9D"/>
	<stop  offset="0.2506" style="stop-color:#A879AF"/>
	<stop  offset="0.3539" style="stop-color:#867DBA"/>
	<stop  offset="0.6278" style="stop-color:#6EAADC"/>
	<stop  offset="0.6642" style="stop-color:#71ACD5"/>
	<stop  offset="0.735" style="stop-color:#77B0BF"/>
	<stop  offset="0.8322" style="stop-color:#81B596"/>
	<stop  offset="0.9092" style="stop-color:#8ABA6A"/>
</linearGradient>
<linearGradient id="SVGID_00000064340627162638358530000016420373269801028766_" gradientUnits="userSpaceOnUse" x1="43.1678" y1="40.228" x2="97.5294" y2="40.228">
	<stop  offset="0" style="stop-color:#FFFFFF"/>
	<stop  offset="1" style="stop-color:#000000"/>
</linearGradient>
<path style="fill:url(#SVGID_00000098902570577689940720000006704576972798376101_);stroke:url(#SVGID_00000064340627162638358530000016420373269801028766_);stroke-width:2.601;stroke-miterlimit:10;" d="
	M58.1,22.6H44.5V3.2h51.8v19.4H82.6v54.6H58.1V22.6z"/>
<linearGradient id="SVGID_00000006671773277178039970000017012959042444650431_" gradientUnits="userSpaceOnUse" x1="100.1158" y1="40.228" x2="162.6514" y2="40.228">
	<stop  offset="0.1044" style="stop-color:#D36C9D"/>
	<stop  offset="0.2506" style="stop-color:#A879AF"/>
	<stop  offset="0.3539" style="stop-color:#867DBA"/>
	<stop  offset="0.6278" style="stop-color:#6EAADC"/>
	<stop  offset="0.6642" style="stop-color:#71ACD5"/>
	<stop  offset="0.735" style="stop-color:#77B0BF"/>
	<stop  offset="0.8322" style="stop-color:#81B596"/>
	<stop  offset="0.9092" style="stop-color:#8ABA6A"/>
</linearGradient>
<linearGradient id="SVGID_00000080207513131402614570000013939635140128225211_" gradientUnits="userSpaceOnUse" x1="98.8154" y1="40.228" x2="164.886" y2="40.228">
	<stop  offset="0" style="stop-color:#FFFFFF"/>
	<stop  offset="1" style="stop-color:#000000"/>
</linearGradient>
<path style="fill:url(#SVGID_00000006671773277178039970000017012959042444650431_);stroke:url(#SVGID_00000080207513131402614570000013939635140128225211_);stroke-width:2.601;stroke-miterlimit:10;" d="
	M100.1,3.2h25.5c4.7,0,9.1,0.6,13.2,1.9c4,1.3,7.5,3.1,10.5,5.6c3,2.4,5.3,5.5,6.9,9.1c1.7,3.6,2.5,7.7,2.5,12.4
	c0,3.7-0.5,6.9-1.6,9.4c-1,2.6-2.2,4.7-3.4,6.4c-1.5,1.9-3.1,3.6-5,4.9l13.9,24.4h-27.8l-11.1-18.8v18.8h-23.7V3.2z M123.8,39.6h1.2
	c2.8,0,5.2-0.6,7.2-1.9c2-1.3,2.9-3.4,2.9-6.3c0-3-1-5.1-2.9-6.3c-2-1.3-4.4-1.9-7.2-1.9h-1.2V39.6z"/>
<linearGradient id="SVGID_00000155115561676442669020000005173183041086200716_" gradientUnits="userSpaceOnUse" x1="164.8721" y1="40.228" x2="209.3018" y2="40.228">
	<stop  offset="0.1044" style="stop-color:#D36C9D"/>
	<stop  offset="0.2506" style="stop-color:#A879AF"/>
	<stop  offset="0.3539" style="stop-color:#867DBA"/>
	<stop  offset="0.6278" style="stop-color:#6EAADC"/>
	<stop  offset="0.6642" style="stop-color:#71ACD5"/>
	<stop  offset="0.735" style="stop-color:#77B0BF"/>
	<stop  offset="0.8322" style="stop-color:#81B596"/>
	<stop  offset="0.9092" style="stop-color:#8ABA6A"/>
</linearGradient>
<linearGradient id="SVGID_00000058554609547962052590000017984338281565278886_" gradientUnits="userSpaceOnUse" x1="163.5716" y1="40.228" x2="210.6023" y2="40.228">
	<stop  offset="0" style="stop-color:#FFFFFF"/>
	<stop  offset="1" style="stop-color:#000000"/>
</linearGradient>
<path style="fill:url(#SVGID_00000155115561676442669020000005173183041086200716_);stroke:url(#SVGID_00000058554609547962052590000017984338281565278886_);stroke-width:2.601;stroke-miterlimit:10;" d="
	M164.9,3.2h43.7v19.4h-20v8.2h19.7v18.4h-19.7v8.6h20.8v19.4h-44.4V3.2z"/>
<linearGradient id="SVGID_00000031198944933176461100000006158528313926827921_" gradientUnits="userSpaceOnUse" x1="215.9653" y1="40.228" x2="260.3951" y2="40.228">
	<stop  offset="0.1044" style="stop-color:#D36C9D"/>
	<stop  offset="0.2506" style="stop-color:#A879AF"/>
	<stop  offset="0.3539" style="stop-color:#867DBA"/>
	<stop  offset="0.6278" style="stop-color:#6EAADC"/>
	<stop  offset="0.6642" style="stop-color:#71ACD5"/>
	<stop  offset="0.735" style="stop-color:#77B0BF"/>
	<stop  offset="0.8322" style="stop-color:#81B596"/>
	<stop  offset="0.9092" style="stop-color:#8ABA6A"/>
</linearGradient>
<linearGradient id="SVGID_00000023995600650170617330000004439677055083319186_" gradientUnits="userSpaceOnUse" x1="214.6649" y1="40.228" x2="261.6956" y2="40.228">
	<stop  offset="0" style="stop-color:#FFFFFF"/>
	<stop  offset="1" style="stop-color:#000000"/>
</linearGradient>
<path style="fill:url(#SVGID_00000031198944933176461100000006158528313926827921_);stroke:url(#SVGID_00000023995600650170617330000004439677055083319186_);stroke-width:2.601;stroke-miterlimit:10;" d="
	M216,3.2h43.7v19.4h-20v8.2h19.7v18.4h-19.7v8.6h20.8v19.4H216V3.2z"/>
<linearGradient id="SVGID_00000039132427441943503650000008279284432025497786_" gradientUnits="userSpaceOnUse" x1="263.171" y1="40.228" x2="314.9317" y2="40.228">
	<stop  offset="0.1044" style="stop-color:#D36C9D"/>
	<stop  offset="0.2506" style="stop-color:#A879AF"/>
	<stop  offset="0.3539" style="stop-color:#867DBA"/>
	<stop  offset="0.6278" style="stop-color:#6EAADC"/>
	<stop  offset="0.6642" style="stop-color:#71ACD5"/>
	<stop  offset="0.735" style="stop-color:#77B0BF"/>
	<stop  offset="0.8322" style="stop-color:#81B596"/>
	<stop  offset="0.9092" style="stop-color:#8ABA6A"/>
</linearGradient>
<linearGradient id="SVGID_00000116918076202183171930000002287533722900943288_" gradientUnits="userSpaceOnUse" x1="261.8705" y1="40.228" x2="316.2321" y2="40.228">
	<stop  offset="0" style="stop-color:#FFFFFF"/>
	<stop  offset="1" style="stop-color:#000000"/>
</linearGradient>
<path style="fill:url(#SVGID_00000039132427441943503650000008279284432025497786_);stroke:url(#SVGID_00000116918076202183171930000002287533722900943288_);stroke-width:2.601;stroke-miterlimit:10;" d="
	M276.8,22.6h-13.7V3.2h51.8v19.4h-13.7v54.6h-24.4V22.6z"/>
<linearGradient id="SVGID_00000076573949601762619710000015429700220695839124_" gradientUnits="userSpaceOnUse" x1="337.1458" y1="40.228" x2="375.6888" y2="40.228">
	<stop  offset="0.1044" style="stop-color:#D36C9D"/>
	<stop  offset="0.2506" style="stop-color:#A879AF"/>
	<stop  offset="0.3539" style="stop-color:#867DBA"/>
	<stop  offset="0.6278" style="stop-color:#6EAADC"/>
	<stop  offset="0.6642" style="stop-color:#71ACD5"/>
	<stop  offset="0.735" style="stop-color:#77B0BF"/>
	<stop  offset="0.8322" style="stop-color:#81B596"/>
	<stop  offset="0.9092" style="stop-color:#8ABA6A"/>
</linearGradient>
<linearGradient id="SVGID_00000016032879822057296690000015159621039057680310_" gradientUnits="userSpaceOnUse" x1="335.8453" y1="40.228" x2="376.9892" y2="40.228">
	<stop  offset="0" style="stop-color:#FFFFFF"/>
	<stop  offset="1" style="stop-color:#000000"/>
</linearGradient>
<path style="fill:url(#SVGID_00000076573949601762619710000015429700220695839124_);stroke:url(#SVGID_00000016032879822057296690000015159621039057680310_);stroke-width:2.601;stroke-miterlimit:10;" d="
	M337.1,59.5h8.1c2.4,0,4-0.4,4.8-1.3c0.8-0.9,1.2-2.1,1.2-3.8V3.2h24.4v55.3c0,6.9-1.6,11.7-4.7,14.6c-3.1,2.8-8.2,4.2-15.1,4.2
	h-18.8V59.5z"/>
<linearGradient id="SVGID_00000129900033421575918980000017471033325021988747_" gradientUnits="userSpaceOnUse" x1="375.3558" y1="40.228" x2="449.3321" y2="40.228">
	<stop  offset="0.1044" style="stop-color:#D36C9D"/>
	<stop  offset="0.2506" style="stop-color:#A879AF"/>
	<stop  offset="0.3539" style="stop-color:#867DBA"/>
	<stop  offset="0.6278" style="stop-color:#6EAADC"/>
	<stop  offset="0.6642" style="stop-color:#71ACD5"/>
	<stop  offset="0.735" style="stop-color:#77B0BF"/>
	<stop  offset="0.8322" style="stop-color:#81B596"/>
	<stop  offset="0.9092" style="stop-color:#8ABA6A"/>
</linearGradient>
<linearGradient id="SVGID_00000081621957623471835690000016945860276808910467_" gradientUnits="userSpaceOnUse" x1="373.4716" y1="40.228" x2="451.2163" y2="40.228">
	<stop  offset="0" style="stop-color:#FFFFFF"/>
	<stop  offset="1" style="stop-color:#000000"/>
</linearGradient>
<path style="fill:url(#SVGID_00000129900033421575918980000017471033325021988747_);stroke:url(#SVGID_00000081621957623471835690000016945860276808910467_);stroke-width:2.601;stroke-miterlimit:10;" d="
	M403.5,3.2h17.8l28.1,74.1H426l-2.4-6.7h-22.4l-2.4,6.7h-23.3L403.5,3.2z M417.3,54.3l-5-13l-5,13H417.3z"/>
<linearGradient id="SVGID_00000129175976146984904910000018184204358631963297_" gradientUnits="userSpaceOnUse" x1="450.9969" y1="40.228" x2="528.6387" y2="40.228">
	<stop  offset="0.1044" style="stop-color:#D36C9D"/>
	<stop  offset="0.2506" style="stop-color:#A879AF"/>
	<stop  offset="0.3539" style="stop-color:#867DBA"/>
	<stop  offset="0.6278" style="stop-color:#6EAADC"/>
	<stop  offset="0.6642" style="stop-color:#71ACD5"/>
	<stop  offset="0.735" style="stop-color:#77B0BF"/>
	<stop  offset="0.8322" style="stop-color:#81B596"/>
	<stop  offset="0.9092" style="stop-color:#8ABA6A"/>
</linearGradient>
<linearGradient id="SVGID_00000070076140395953263810000004758174767848293539_" gradientUnits="userSpaceOnUse" x1="449.6964" y1="40.228" x2="529.9391" y2="40.228">
	<stop  offset="0" style="stop-color:#FFFFFF"/>
	<stop  offset="1" style="stop-color:#000000"/>
</linearGradient>
<path style="fill:url(#SVGID_00000129175976146984904910000018184204358631963297_);stroke:url(#SVGID_00000070076140395953263810000004758174767848293539_);stroke-width:2.601;stroke-miterlimit:10;" d="
	M451,3.2h19.5l19.3,28.4l19.2-28.4h19.5v74.1H505V50.6l-15.1,22.2l-15.2-22.2v26.7H451V3.2z"/>
<linearGradient id="SVGID_00000018930851039566440210000011927654260990779273_" gradientUnits="userSpaceOnUse" x1="91.8659" y1="134.8365" x2="134.3645" y2="134.8365">
	<stop  offset="0.1044" style="stop-color:#D36C9D"/>
	<stop  offset="0.2506" style="stop-color:#A879AF"/>
	<stop  offset="0.3539" style="stop-color:#867DBA"/>
	<stop  offset="0.6278" style="stop-color:#6EAADC"/>
	<stop  offset="0.6642" style="stop-color:#71ACD5"/>
	<stop  offset="0.735" style="stop-color:#77B0BF"/>
	<stop  offset="0.8322" style="stop-color:#81B596"/>
	<stop  offset="0.9092" style="stop-color:#8ABA6A"/>
</linearGradient>
<linearGradient id="SVGID_00000167368939643902444810000002838762495394139794_" gradientUnits="userSpaceOnUse" x1="90.5988" y1="134.8365" x2="135.6316" y2="134.8365">
	<stop  offset="0" style="stop-color:#FFFFFF"/>
	<stop  offset="1" style="stop-color:#000000"/>
</linearGradient>
<path style="fill:url(#SVGID_00000018930851039566440210000011927654260990779273_);stroke:url(#SVGID_00000167368939643902444810000002838762495394139794_);stroke-width:2.2792;stroke-miterlimit:10;" d="
	M91.9,104.9l38-4.6l2,16.9l-17.4,2.1l0.9,7.2l17.1-2.1l1.9,16l-17.1,2.1l2.9,24.4l-20.6,2.5L91.9,104.9z"/>
<linearGradient id="SVGID_00000035492737821754827080000006134253219586902195_" gradientUnits="userSpaceOnUse" x1="135.1615" y1="129.6463" x2="181.5456" y2="129.6463">
	<stop  offset="0.1044" style="stop-color:#D36C9D"/>
	<stop  offset="0.2506" style="stop-color:#A879AF"/>
	<stop  offset="0.3539" style="stop-color:#867DBA"/>
	<stop  offset="0.6278" style="stop-color:#6EAADC"/>
	<stop  offset="0.6642" style="stop-color:#71ACD5"/>
	<stop  offset="0.735" style="stop-color:#77B0BF"/>
	<stop  offset="0.8322" style="stop-color:#81B596"/>
	<stop  offset="0.9092" style="stop-color:#8ABA6A"/>
</linearGradient>
<linearGradient id="SVGID_00000042715969733662514580000005838725044442544010_" gradientUnits="userSpaceOnUse" x1="133.8943" y1="129.6463" x2="182.8127" y2="129.6463">
	<stop  offset="0" style="stop-color:#FFFFFF"/>
	<stop  offset="1" style="stop-color:#000000"/>
</linearGradient>
<path style="fill:url(#SVGID_00000035492737821754827080000006134253219586902195_);stroke:url(#SVGID_00000042715969733662514580000005838725044442544010_);stroke-width:2.2792;stroke-miterlimit:10;" d="
	M135.2,99.7l38-4.6l2,16.9l-17.4,2.1l0.9,7.2l17.1-2.1l1.9,16l-17.1,2.1l0.9,7.4l18.1-2.2l2,16.9l-38.7,4.6L135.2,99.7z"/>
<linearGradient id="SVGID_00000083793487476596231790000007602808597746622112_" gradientUnits="userSpaceOnUse" x1="178.5883" y1="124.7027" x2="223.4533" y2="124.7027">
	<stop  offset="0.1044" style="stop-color:#D36C9D"/>
	<stop  offset="0.2506" style="stop-color:#A879AF"/>
	<stop  offset="0.3539" style="stop-color:#867DBA"/>
	<stop  offset="0.6278" style="stop-color:#6EAADC"/>
	<stop  offset="0.6642" style="stop-color:#71ACD5"/>
	<stop  offset="0.735" style="stop-color:#77B0BF"/>
	<stop  offset="0.8322" style="stop-color:#81B596"/>
	<stop  offset="0.9092" style="stop-color:#8ABA6A"/>
</linearGradient>
<linearGradient id="SVGID_00000003074350022491878630000004869010665999936397_" gradientUnits="userSpaceOnUse" x1="177.4487" y1="124.7026" x2="224.5929" y2="124.7026">
	<stop  offset="0" style="stop-color:#FFFFFF"/>
	<stop  offset="1" style="stop-color:#000000"/>
</linearGradient>
<path style="fill:url(#SVGID_00000083793487476596231790000007602808597746622112_);stroke:url(#SVGID_00000003074350022491878630000004869010665999936397_);stroke-width:2.2792;stroke-miterlimit:10;" d="
	M182.2,139.1c1.5,0.3,3,0.5,4.6,0.5c1.3,0.2,2.8,0.2,4.5,0.2c1.7,0,3.3-0.1,5-0.3c3-0.4,4.3-1.6,4.1-3.8c-0.1-0.8-0.7-1.6-1.7-2.4
	c-1-0.8-2.3-1.6-3.8-2.5c-1.5-0.9-3.1-1.9-4.9-3c-1.7-1.1-3.4-2.4-5-3.9c-1.6-1.5-3-3.3-4.1-5.2c-1.2-2-1.9-4.3-2.2-7
	c-0.4-3-0.1-5.8,0.7-8.2c0.8-2.5,2.1-4.6,3.8-6.3c1.7-1.8,3.9-3.2,6.4-4.3c2.5-1.1,5.3-1.9,8.2-2.2c1.5-0.2,3.1-0.3,4.7-0.3
	c1.6,0,3,0,4.2-0.1c1.4,0,2.8,0.1,4.2,0.1l2.2,18.1c-0.5,0-1.1,0-1.8,0c-0.5,0-1.1,0-1.8,0c-0.7,0-1.3,0.1-2,0.1
	c-0.4,0-0.9,0.1-1.4,0.2c-0.6,0.1-1.1,0.2-1.6,0.4c-0.5,0.2-0.9,0.5-1.3,0.8c-0.3,0.4-0.5,0.8-0.4,1.4c0.1,0.5,0.6,1.1,1.5,1.8
	c1,0.7,2.1,1.4,3.5,2.3c1.4,0.9,2.9,1.9,4.6,3.1c1.7,1.2,3.2,2.6,4.7,4.1c1.5,1.6,2.8,3.4,3.9,5.5c1.1,2.1,1.9,4.5,2.2,7.2
	c0.3,2.8,0.2,5.5-0.4,8.1c-0.6,2.6-1.7,4.9-3.4,7c-1.7,2.1-3.9,3.8-6.8,5.2c-2.8,1.4-6.3,2.4-10.3,2.9c-2.4,0.3-4.7,0.5-6.9,0.5
	c-2.1,0-4,0-5.7-0.2c-1.9-0.1-3.7-0.3-5.3-0.5L182.2,139.1z"/>
<linearGradient id="SVGID_00000060717238250081447380000016628048698128444588_" gradientUnits="userSpaceOnUse" x1="214.4075" y1="119.0109" x2="261.47" y2="119.0109">
	<stop  offset="0.1044" style="stop-color:#D36C9D"/>
	<stop  offset="0.2506" style="stop-color:#A879AF"/>
	<stop  offset="0.3539" style="stop-color:#867DBA"/>
	<stop  offset="0.6278" style="stop-color:#6EAADC"/>
	<stop  offset="0.6642" style="stop-color:#71ACD5"/>
	<stop  offset="0.735" style="stop-color:#77B0BF"/>
	<stop  offset="0.8322" style="stop-color:#81B596"/>
	<stop  offset="0.9092" style="stop-color:#8ABA6A"/>
</linearGradient>
<linearGradient id="SVGID_00000087379958502404820580000016696036318531546256_" gradientUnits="userSpaceOnUse" x1="213.1404" y1="119.0109" x2="262.7371" y2="119.0109">
	<stop  offset="0" style="stop-color:#FFFFFF"/>
	<stop  offset="1" style="stop-color:#000000"/>
</linearGradient>
<path style="fill:url(#SVGID_00000060717238250081447380000016628048698128444588_);stroke:url(#SVGID_00000087379958502404820580000016696036318531546256_);stroke-width:2.2792;stroke-miterlimit:10;" d="
	M228.3,105.7l-11.9,1.4l-2-16.9l45-5.4l2,16.9l-11.9,1.4l5.7,47.5l-21.3,2.5L228.3,105.7z"/>
<linearGradient id="SVGID_00000168110339299476909380000018271984870882505391_" gradientUnits="userSpaceOnUse" x1="262.8243" y1="115.3095" x2="292.3929" y2="115.3095">
	<stop  offset="0.1044" style="stop-color:#D36C9D"/>
	<stop  offset="0.2506" style="stop-color:#A879AF"/>
	<stop  offset="0.3539" style="stop-color:#867DBA"/>
	<stop  offset="0.6278" style="stop-color:#6EAADC"/>
	<stop  offset="0.6642" style="stop-color:#71ACD5"/>
	<stop  offset="0.735" style="stop-color:#77B0BF"/>
	<stop  offset="0.8322" style="stop-color:#81B596"/>
	<stop  offset="0.9092" style="stop-color:#8ABA6A"/>
</linearGradient>
<linearGradient id="SVGID_00000078755051599875882630000016774468212658801817_" gradientUnits="userSpaceOnUse" x1="261.5572" y1="115.3095" x2="293.6601" y2="115.3095">
	<stop  offset="0" style="stop-color:#FFFFFF"/>
	<stop  offset="1" style="stop-color:#000000"/>
</linearGradient>
<path style="fill:url(#SVGID_00000168110339299476909380000018271984870882505391_);stroke:url(#SVGID_00000078755051599875882630000016774468212658801817_);stroke-width:2.2792;stroke-miterlimit:10;" d="
	M262.8,84.4l21.8-2.6l7.7,64.5l-21.8,2.6L262.8,84.4z"/>
<linearGradient id="SVGID_00000018930600569543165820000003277234082050330754_" gradientUnits="userSpaceOnUse" x1="286.1146" y1="108.3061" x2="353.0876" y2="108.3061">
	<stop  offset="0.1044" style="stop-color:#D36C9D"/>
	<stop  offset="0.2506" style="stop-color:#A879AF"/>
	<stop  offset="0.3539" style="stop-color:#867DBA"/>
	<stop  offset="0.6278" style="stop-color:#6EAADC"/>
	<stop  offset="0.6642" style="stop-color:#71ACD5"/>
	<stop  offset="0.735" style="stop-color:#77B0BF"/>
	<stop  offset="0.8322" style="stop-color:#81B596"/>
	<stop  offset="0.9092" style="stop-color:#8ABA6A"/>
</linearGradient>
<linearGradient id="SVGID_00000023259419929459367760000008637187454857058236_" gradientUnits="userSpaceOnUse" x1="284.3234" y1="108.2533" x2="354.6075" y2="108.2533">
	<stop  offset="0" style="stop-color:#FFFFFF"/>
	<stop  offset="1" style="stop-color:#000000"/>
</linearGradient>
<path style="fill:url(#SVGID_00000018930600569543165820000003277234082050330754_);stroke:url(#SVGID_00000023259419929459367760000008637187454857058236_);stroke-width:2.2792;stroke-miterlimit:10;" d="
	M308.6,78.9l14.3,26.7l7.7-29.3l22.5-2.7L335.7,141l-16.7,2l-32.9-61.4L308.6,78.9z"/>
<linearGradient id="SVGID_00000060746368513461159270000007645215578182414774_" gradientUnits="userSpaceOnUse" x1="345.3517" y1="105.2592" x2="409.7156" y2="105.2592">
	<stop  offset="0.1044" style="stop-color:#D36C9D"/>
	<stop  offset="0.2506" style="stop-color:#A879AF"/>
	<stop  offset="0.3539" style="stop-color:#867DBA"/>
	<stop  offset="0.6278" style="stop-color:#6EAADC"/>
	<stop  offset="0.6642" style="stop-color:#71ACD5"/>
	<stop  offset="0.735" style="stop-color:#77B0BF"/>
	<stop  offset="0.8322" style="stop-color:#81B596"/>
	<stop  offset="0.9092" style="stop-color:#8ABA6A"/>
</linearGradient>
<linearGradient id="SVGID_00000134970069338874025160000006101520720052742842_" gradientUnits="userSpaceOnUse" x1="343.8479" y1="105.3107" x2="411.4906" y2="105.3107">
	<stop  offset="0" style="stop-color:#FFFFFF"/>
	<stop  offset="1" style="stop-color:#000000"/>
</linearGradient>
<path style="fill:url(#SVGID_00000060746368513461159270000007645215578182414774_);stroke:url(#SVGID_00000134970069338874025160000006101520720052742842_);stroke-width:2.2792;stroke-miterlimit:10;" d="
	M362.1,72.5l15.5-1.9l32.2,61.5l-20.3,2.4l-2.8-5.5l-19.5,2.3l-1.4,6.1l-20.3,2.4L362.1,72.5z M379.5,115.5l-5.7-10.8l-3,11.8
	L379.5,115.5z"/>
<linearGradient id="SVGID_00000083772838087717940330000017006552781423758480_" gradientUnits="userSpaceOnUse" x1="403.4366" y1="98.4761" x2="450.4014" y2="98.4761">
	<stop  offset="0.1044" style="stop-color:#D36C9D"/>
	<stop  offset="0.2506" style="stop-color:#A879AF"/>
	<stop  offset="0.3539" style="stop-color:#867DBA"/>
	<stop  offset="0.6278" style="stop-color:#6EAADC"/>
	<stop  offset="0.6642" style="stop-color:#71ACD5"/>
	<stop  offset="0.735" style="stop-color:#77B0BF"/>
	<stop  offset="0.8322" style="stop-color:#81B596"/>
	<stop  offset="0.9092" style="stop-color:#8ABA6A"/>
</linearGradient>
<linearGradient id="SVGID_00000003101664854099188570000010426211020139460030_" gradientUnits="userSpaceOnUse" x1="402.1694" y1="98.4761" x2="451.6685" y2="98.4761">
	<stop  offset="0" style="stop-color:#FFFFFF"/>
	<stop  offset="1" style="stop-color:#000000"/>
</linearGradient>
<path style="fill:url(#SVGID_00000083772838087717940330000017006552781423758480_);stroke:url(#SVGID_00000003101664854099188570000010426211020139460030_);stroke-width:2.2792;stroke-miterlimit:10;" d="
	M403.4,67.5l21.5-2.6l5.7,47.5l17.8-2.1l2,16.9l-39.2,4.7L403.4,67.5z"/>
</svg>
