<?xml version="1.0" encoding="utf-8"?>
<!-- Generator: Adobe Illustrator 27.5.0, SVG Export Plug-In . SVG Version: 6.00 Build 0)  -->
<svg version="1.1" id="Calque_1" xmlns="http://www.w3.org/2000/svg" xmlns:xlink="http://www.w3.org/1999/xlink" x="0px" y="0px"
	 viewBox="0 0 388.9 268.6" style="enable-background:new 0 0 388.9 268.6;" xml:space="preserve">
<style type="text/css">
	.st0{fill:#FFFFFF;stroke:#000000;stroke-miterlimit:10;}
</style>
<g>
	<path class="st0" d="M388.3,32.8c0,67.7,0,135.3,0,203c-2.5,5.7-4.1,12.1-7.6,17.1c-7.6,11-18.9,15.2-32.1,15.2
		c-76.7-0.1-153.4,0-230.2,0c-26.4,0-52.7,0-79.1,0c-12.9,0-23.9-4.5-31.3-15.2c-3.5-5-5.1-11.4-7.6-17.1c0-67.7,0-135.3,0-203
		C2.9,27.2,4.4,21,7.8,16c7.6-11.1,19-15.6,32.3-15.5c77.1,0.1,154.2,0,231.3,0c26,0,52,0,78,0c12.9,0,23.9,4.5,31.3,15.2
		C384.2,20.7,385.9,27,388.3,32.8z M356.3,248.2c-32.6-41-64.4-81.1-96.4-121.4c-1.8,1.5-3.4,2.9-5,4.3
		c-11.6,10.3-23.2,20.6-34.8,30.9c-16.2,14.4-36,14.5-52.3,0.2c-12.6-11-25.1-22.3-37.7-33.4c-1-0.9-2.1-1.7-3.3-2.7
		c-31.5,40.7-62.7,81-94.5,122.1C140.6,248.2,248,248.2,356.3,248.2z M34.5,19.3c0.9,1,1.2,1.4,1.6,1.7
		c48.3,42.7,96.5,85.5,144.8,128.2c3.9,3.5,8.5,5.3,13.8,5c5.1-0.2,9.1-2.6,12.8-5.8c48-42.5,96.1-84.9,144.1-127.3
		c0.5-0.4,0.9-1,1.5-1.8C246.8,19.3,141,19.3,34.5,19.3z M19.5,234.8c31.6-40.9,62.6-80.9,93.7-121.1C82,86.1,51.2,58.8,20.5,31.6
		c-0.3,0.2-0.7,0.4-1,0.5C19.5,99.3,19.5,166.4,19.5,234.8z M368.3,233.8c1.7-11,0.8-199.3-1-202.2c-31.2,27.6-62.3,55.1-93.5,82.8
		C305.3,154.3,336.6,193.8,368.3,233.8z"/>
</g>
</svg>
