<?xml version="1.0" encoding="utf-8"?>
<!-- Generator: Adobe Illustrator 27.5.0, SVG Export Plug-In . SVG Version: 6.00 Build 0)  -->
<svg version="1.1" id="Calque_1" xmlns="http://www.w3.org/2000/svg" xmlns:xlink="http://www.w3.org/1999/xlink" x="0px" y="0px"
	 viewBox="0 0 169.8 99.6" style="enable-background:new 0 0 169.8 99.6;" xml:space="preserve">
<style type="text/css">
	.st0{fill:#FFFFFF;stroke:#010202;stroke-miterlimit:10;}
	.st1{fill:#FFFFFF;stroke:#020304;stroke-width:0.75;stroke-miterlimit:10.0003;}
</style>
<polygon class="st0" points="29.9,24.1 169.1,0.7 169.3,90.8 60.3,99 "/>
<g>
	<g>
		<path class="st1" d="M45.8,51L45.6,51c-1.1,2.9-5.2,4.4-9.6,3.4c-4.6-1.1-7.7-4.6-6.9-7.8c0.8-3.2,5.1-4.9,9.7-3.8
			c2.6,0.6,4.7,2.1,5.9,3.8l9-20.1l-24.7-6.2L16.7,48l0,0c-1.3,2.7-5.2,4-9.4,3c-4.5-1.1-7.6-4.6-6.8-7.8s5.1-4.9,9.6-3.8
			c2.6,0.6,4.7,2,5.9,3.7l10.6-23.7l0,0l3.8-8.5c0.2-0.5,0.9-0.8,1.6-0.6l26.7,7c0.9,0.2,1.4,1.1,1.1,1.8L59,20.9l0.1,0.1L45.8,51z"
			/>
	</g>
</g>
</svg>
