<?xml version="1.0" encoding="utf-8"?>
<!-- Generator: Adobe Illustrator 27.5.0, SVG Export Plug-In . SVG Version: 6.00 Build 0)  -->
<svg version="1.1" id="Calque_1" xmlns="http://www.w3.org/2000/svg" xmlns:xlink="http://www.w3.org/1999/xlink" x="0px" y="0px"
	 viewBox="0 0 279.5 326.7" style="enable-background:new 0 0 279.5 326.7;" xml:space="preserve">
<style type="text/css">
	.st0{fill:#FFFFFF;stroke:#010202;stroke-width:0.75;stroke-miterlimit:10.0003;}
</style>
<g>
	<path class="st0" d="M279.1,225.8H279c1.5,19.5-18.4,38.6-46,43.7c-29,5.3-55.5-6.9-59.2-27.3c-3.7-20.4,16.7-41.2,45.7-46.5
		c16.5-3,32.3-0.3,43.4,6.3V64.2L106.2,91.8v192.1h0c-0.4,18.5-19.7,36.3-46.1,41.1c-29,5.3-55.5-6.9-59.2-27.3
		c-3.7-20.4,16.7-41.2,45.7-46.5c16.5-3,32.3-0.3,43.5,6.3V94.7l-0.1,0V36.6c0-3.7,3.1-6.9,7.4-7.6L268.2,0.5
		c5.6-0.9,10.8,2.7,10.8,7.6v12.2h0.1V225.8z"/>
</g>
</svg>
