<?xml version="1.0" encoding="utf-8"?>
<!-- Generator: Adobe Illustrator 27.5.0, SVG Export Plug-In . SVG Version: 6.00 Build 0)  -->
<svg version="1.1" id="Calque_1" xmlns="http://www.w3.org/2000/svg" xmlns:xlink="http://www.w3.org/1999/xlink" x="0px" y="0px"
	 viewBox="0 0 611.5 262.1" style="enable-background:new 0 0 611.5 262.1;" xml:space="preserve">
<style type="text/css">
	.st0{fill:#FFFFFF;stroke:#010202;stroke-width:5;stroke-miterlimit:10;}
	.st1{fill:#FFFFFF;stroke:#FFFFFF;stroke-width:5;stroke-miterlimit:10;}
	.st2{fill:#FFFFFF;stroke:#010202;stroke-width:5;stroke-miterlimit:9.9997;}
</style>
<g>
	<circle class="st0" cx="95.7" cy="218.7" r="25.4"/>
	<circle class="st0" cx="462.2" cy="122.3" r="25.4"/>
	<path class="st1" d="M513.3,18.4L77.5,141.9c-2.1,0.6-4.1,1.1-6.2,1.5c-6.1,1.1-19.7,3.6-27.3,4.8c-2.2,0.4-4.4,0.5-6.7,0.7
		c-25.7,2.1-75.2,47.6,41,75c2.9,0.7,5.9,1.2,8.9,1.5c40.4,3.5,90.1-13,98.9-16.1c1-0.4,2-0.7,3.1-1l355.3-104.7
		c0,0,63.6-17.2,62.4-50.4c-1.1-32.8-37.1-46.8-89.3-35.8C516.1,17.6,514.7,18,513.3,18.4z"/>
	<path class="st0" d="M514.4,7.5l-438,124.2c-2.1,0.6-4.2,1.1-6.3,1.5c-6.2,1.1-19.8,3.6-27.5,4.8c-2.2,0.4-4.5,0.5-6.7,0.7
		c-25.8,2-75.6,47.8,41.1,75.3c3,0.7,6,1.2,9,1.5c40.6,3.5,90.6-13.1,99.4-16.2c1-0.4,2-0.7,3.1-1L545.7,93.1
		c0,0,63.9-17.3,62.7-50.7c-1.1-32.9-37.3-47-89.8-36C517.2,6.8,515.8,7.1,514.4,7.5z"/>
	<circle class="st0" cx="170.7" cy="234.2" r="25.4"/>
	
		<ellipse transform="matrix(0.3417 -0.9398 0.9398 0.3417 225.1954 579.947)" class="st2" cx="526.6" cy="129.2" rx="25.4" ry="25.4"/>
</g>
</svg>
