<?xml version="1.0" encoding="utf-8"?>
<!-- Generator: Adobe Illustrator 27.5.0, SVG Export Plug-In . SVG Version: 6.00 Build 0)  -->
<svg version="1.1" id="Calque_1" xmlns="http://www.w3.org/2000/svg" xmlns:xlink="http://www.w3.org/1999/xlink" x="0px" y="0px"
	 viewBox="0 0 158.7 127.6" style="enable-background:new 0 0 158.7 127.6;" xml:space="preserve">
<style type="text/css">
	.st0{fill:#FFFFFF;stroke:#020203;stroke-width:0.9339;stroke-miterlimit:10;}
	.st1{fill:#FFFFFF;stroke:#020304;stroke-width:0.75;stroke-miterlimit:10;}
	.st2{fill:#FFFFFF;stroke:#FFFFFF;stroke-width:0.75;stroke-miterlimit:10;}
	.st3{fill:#FFFFFF;stroke:#020304;stroke-width:0.75;stroke-miterlimit:9.9997;}
</style>
<polygon class="st0" points="22,0.8 145.9,39.9 133.4,115.8 0.8,103.7 "/>
<g>
	<g>
		<circle class="st1" cx="99.8" cy="122.5" r="2.9"/>
		<circle class="st1" cx="141.6" cy="111.5" r="2.9"/>
		<path class="st2" d="M147.4,99.6l-49.8,14.1c-0.2,0.1-0.5,0.1-0.7,0.2c-0.7,0.1-2.2,0.4-3.1,0.5c-0.3,0-0.5,0.1-0.8,0.1
			c-2.9,0.2-8.6,5.4,4.7,8.6c0.3,0.1,0.7,0.1,1,0.2c4.6,0.4,10.3-1.5,11.3-1.8c0.1,0,0.2-0.1,0.4-0.1l40.6-12c0,0,7.3-2,7.1-5.8
			c-0.1-3.7-4.2-5.3-10.2-4.1C147.8,99.5,147.6,99.5,147.4,99.6z"/>
		<path class="st1" d="M147.6,98.3l-50,14.2c-0.2,0.1-0.5,0.1-0.7,0.2c-0.7,0.1-2.3,0.4-3.1,0.5c-0.3,0-0.5,0.1-0.8,0.1
			c-2.9,0.2-8.6,5.5,4.7,8.6c0.3,0.1,0.7,0.1,1,0.2c4.6,0.4,10.3-1.5,11.4-1.9c0.1,0,0.2-0.1,0.4-0.1l40.8-12c0,0,7.3-2,7.2-5.8
			c-0.1-3.8-4.3-5.4-10.3-4.1C147.9,98.3,147.7,98.3,147.6,98.3z"/>
		<circle class="st1" cx="108.3" cy="124.2" r="2.9"/>
		<ellipse class="st3" cx="149" cy="112.2" rx="2.9" ry="2.9"/>
	</g>
</g>
</svg>
